<?xml version="1.0" encoding="iso-8859-1"?>
<!-- Generator: Adobe Illustrator 19.0.0, SVG Export Plug-In . SVG Version: 6.00 Build 0)  -->
<svg version="1.1" id="Capa_1" xmlns="http://www.w3.org/2000/svg" xmlns:xlink="http://www.w3.org/1999/xlink" x="0px" y="0px"
	 viewBox="0 0 512.001 512.001" style="enable-background:new 0 0 512.001 512.001;" xml:space="preserve">
<polygon style="fill:#C1B8B7;" points="203.778,232 179.778,56 291.778,16 507.778,0 283.778,120 "/>
<polygon style="fill:#DAD5D4;" points="219.778,96 203.778,232 507.778,0 "/>
<g>
	<path style="fill:#E6E3E2;" d="M219.778,96l153.69,84.529c3.587,1.973,8.085,0.919,10.423-2.441L507.778,0L219.778,96z"/>
	<path style="fill:#E6E3E2;" d="M179.778,56l-76.062-40.956C96.398,11.103,99.198,0,107.509,0h400.269L179.778,56z"/>
</g>
<g>
	<path style="fill:#B0DB51;" d="M133.462,316.401c-4.183,0-7.702-3.251-7.976-7.485c-0.285-4.409,3.059-8.214,7.468-8.499
		c2.128-0.138,4.279-0.223,6.391-0.255c0.041,0,0.082-0.001,0.123-0.001c4.362,0,7.931,3.503,7.997,7.88
		c0.066,4.418-3.461,8.053-7.879,8.119c-1.85,0.028-3.734,0.103-5.6,0.224C133.811,316.395,133.636,316.401,133.462,316.401z"/>
	<path style="fill:#B0DB51;" d="M173.896,321.085c-0.818,0-1.65-0.126-2.471-0.393c-3.3-1.071-6.778-1.968-10.337-2.666
		c-4.335-0.85-7.161-5.054-6.311-9.39c0.85-4.335,5.054-7.162,9.39-6.311c4.186,0.821,8.29,1.88,12.198,3.148
		c4.203,1.364,6.503,5.876,5.14,10.079C180.406,318.935,177.27,321.085,173.896,321.085z"/>
	<path style="fill:#B0DB51;" d="M155.092,440.038c-4.236,0-7.771-3.325-7.983-7.603c-0.219-4.413,3.181-8.168,7.593-8.387
		l0.577-0.032c3.318-0.203,6.568-0.643,9.669-1.308c4.325-0.926,8.573,1.826,9.5,6.145c0.926,4.32-1.825,8.573-6.145,9.5
		c-3.882,0.833-7.932,1.382-12.037,1.632c-0.25,0.016-0.511,0.03-0.771,0.043C155.361,440.035,155.226,440.038,155.092,440.038z
		 M132.204,436.752c-0.888,0-1.79-0.148-2.674-0.462c-4.136-1.467-8.155-3.361-11.946-5.631c-3.791-2.27-5.024-7.182-2.754-10.973
		c2.269-3.79,7.181-5.026,10.973-2.754c2.883,1.726,5.936,3.166,9.075,4.278c3.521,1.248,5.758,4.902,5.256,8.606
		C139.604,433.736,136.161,436.752,132.204,436.752z M188.048,429.755c-3.667,0-6.953-2.591-7.796-6.163
		c-0.769-3.259,0.637-6.744,3.449-8.559c2.828-1.826,5.508-3.934,7.964-6.267c3.205-3.042,8.268-2.911,11.31,0.292
		c3.042,3.204,2.911,8.268-0.292,11.31c-3.175,3.015-6.642,5.743-10.303,8.106C191.038,429.341,189.534,429.755,188.048,429.755z
		 M104.439,416.375c-2.392,0-4.758-1.068-6.334-3.106c-2.625-3.395-4.991-7.072-7.033-10.93c-2.067-3.905-0.577-8.746,3.329-10.813
		c3.904-2.068,8.746-0.576,10.813,3.329c1.615,3.051,3.481,5.954,5.548,8.626C114.739,408.624,110.982,416.375,104.439,416.375z
		 M210.848,403.878c-5.837,0-9.737-6.322-7.172-11.533c1.509-3.068,2.766-6.288,3.735-9.569c1.252-4.237,5.703-6.657,9.939-5.406
		c4.237,1.252,6.657,5.702,5.406,9.939c-1.226,4.148-2.815,8.219-4.724,12.099C216.641,402.236,213.801,403.878,210.848,403.878z
		 M90.721,384.631c-3.825,0-7.208-2.752-7.876-6.65c-0.713-4.165-1.126-8.452-1.226-12.743c-0.102-4.417,3.396-8.081,7.813-8.184
		c4.446-0.083,8.081,3.396,8.184,7.813c0.081,3.512,0.417,7.015,1,10.411C99.441,380.099,95.612,384.631,90.721,384.631z
		 M217.617,370.022c-4.136,0-7.639-3.184-7.967-7.377c-0.265-3.393-0.876-6.643-1.817-9.661c-1.314-4.218,1.04-8.703,5.258-10.018
		c4.217-1.315,8.703,1.04,10.018,5.258c1.296,4.158,2.134,8.59,2.493,13.173C225.96,365.989,222.219,370.022,217.617,370.022z
		 M92.285,349.992c-5.195,0-9.084-5.088-7.726-10.096c0.987-3.64,2.459-7.795,4.258-12.017c1.731-4.064,6.43-5.956,10.496-4.224
		c4.064,1.732,5.956,6.431,4.224,10.496c-1.914,4.492-2.979,7.881-3.535,9.933C99.035,347.647,95.808,349.992,92.285,349.992z
		 M203.592,338.825c-2.098,0-4.192-0.82-5.762-2.45c-2.259-2.345-4.846-4.546-7.688-6.543c-3.615-2.54-4.487-7.53-1.947-11.145
		s7.53-4.487,11.145-1.947c3.677,2.583,7.046,5.455,10.012,8.535c3.065,3.182,2.971,8.247-0.211,11.312
		C207.59,338.082,205.589,338.825,203.592,338.825z M107.241,318.55c-6.267,0-10.101-7.189-6.677-12.396
		c2.234-3.398,4.644-6.758,7.161-9.986c2.717-3.485,7.745-4.106,11.228-1.39c3.484,2.717,4.107,7.744,1.39,11.228
		c-2.254,2.891-4.411,5.898-6.41,8.938C112.396,317.281,109.844,318.55,107.241,318.55z M129.75,291.931
		c-7.134,0-10.649-9.015-5.455-13.854c2.981-2.777,6.111-5.469,9.304-8.003c3.461-2.747,8.492-2.167,11.24,1.293
		c2.747,3.461,2.167,8.493-1.293,11.24c-2.864,2.272-5.671,4.687-8.345,7.178C133.66,291.221,131.702,291.931,129.75,291.931z
		 M157.874,271.355c-3.464,0-6.654-2.376-7.665-5.685c-1.073-3.512,0.525-7.473,3.719-9.28c3.524-1.993,7.183-3.883,10.875-5.618
		c4-1.877,8.764-0.158,10.643,3.84c1.878,4,0.159,8.764-3.84,10.643c-3.33,1.563-6.627,3.267-9.801,5.062
		C160.561,271.021,159.208,271.355,157.874,271.355z"/>
	<path style="fill:#B0DB51;" d="M190.005,257.65c-3.989,0-7.446-3.067-7.938-7.022c-0.474-3.809,1.94-7.514,5.609-8.632
		c1.977-0.603,4.009-1.183,6.038-1.725c4.269-1.14,8.653,1.396,9.793,5.665s-1.396,8.653-5.665,9.793
		c-1.85,0.494-3.701,1.023-5.501,1.572C191.564,257.538,190.778,257.65,190.005,257.65z"/>
	<path style="fill:#B0DB51;" d="M27.785,512.001c-2.898,0-5.695-1.58-7.116-4.333c-0.964-1.868-1.901-3.777-2.786-5.675
		c-1.867-4.005-0.133-8.764,3.871-10.631c4.006-1.867,8.764-0.132,10.631,3.871c0.794,1.704,1.636,3.419,2.502,5.098
		C37.58,505.55,33.687,512.001,27.785,512.001z"/>
	<path style="fill:#B0DB51;" d="M17.273,485.592c-3.486,0-6.692-2.296-7.691-5.816c-1.085-3.818-2.017-7.712-2.771-11.574
		c-0.847-4.336,1.982-8.538,6.318-9.385c4.339-0.846,8.539,1.982,9.385,6.318c0.668,3.424,1.496,6.878,2.458,10.268
		C26.401,480.431,22.508,485.592,17.273,485.592z"/>
	<path style="fill:#B0DB51;" d="M12.251,452.356c-4.338,0-7.901-3.469-7.995-7.827c-0.022-1.008-0.033-2.013-0.033-3.016
		c0-2.95,0.096-5.942,0.284-8.893c0.282-4.409,4.074-7.743,8.494-7.474c4.409,0.282,7.755,4.084,7.474,8.494
		c-0.167,2.612-0.251,5.261-0.251,7.873c0,0.888,0.01,1.778,0.029,2.67c0.095,4.417-3.408,8.076-7.825,8.171
		C12.368,452.356,12.31,452.356,12.251,452.356z M15.803,418.94c-5.086,0-8.958-4.886-7.794-9.833
		c0.9-3.829,1.973-7.679,3.188-11.444c1.358-4.205,5.87-6.511,10.071-5.156c4.205,1.357,6.513,5.866,5.156,10.071
		c-1.083,3.354-2.038,6.782-2.839,10.191C22.718,416.454,19.432,418.94,15.803,418.94z M27.381,387.384
		c-5.885,0-9.781-6.417-7.121-11.636c1.793-3.516,3.748-6.999,5.809-10.35c2.314-3.764,7.241-4.939,11.005-2.624
		c3.764,2.314,4.938,7.242,2.624,11.005c-1.839,2.991-3.583,6.099-5.184,9.237C33.101,385.789,30.292,387.384,27.381,387.384z
		 M46.166,359.503c-6.755,0-10.442-8.207-6.02-13.265c1.93-2.208,3.94-4.359,5.974-6.394c0.759-0.759,1.523-1.505,2.293-2.24
		c3.197-3.05,8.262-2.932,11.311,0.265c3.05,3.197,2.932,8.261-0.265,11.311c-0.68,0.649-1.355,1.308-2.024,1.978
		c-1.782,1.783-3.546,3.671-5.243,5.611C50.61,358.577,48.394,359.503,46.166,359.503z"/>
	<path style="fill:#B0DB51;" d="M71.486,337.378c-2.591,0-5.133-1.257-6.673-3.578c-2.443-3.682-1.439-8.646,2.243-11.089
		c1.765-1.171,3.579-2.314,5.394-3.398c3.792-2.267,8.704-1.028,10.971,2.765c2.266,3.793,1.028,8.705-2.765,10.971
		c-1.599,0.955-3.198,1.963-4.753,2.995C74.542,336.946,73.005,337.378,71.486,337.378z"/>
</g>
<g>
</g>
<g>
</g>
<g>
</g>
<g>
</g>
<g>
</g>
<g>
</g>
<g>
</g>
<g>
</g>
<g>
</g>
<g>
</g>
<g>
</g>
<g>
</g>
<g>
</g>
<g>
</g>
<g>
</g>
</svg>
