<svg id="Capa_1" enable-background="new 0 0 512 512" height="512" viewBox="0 0 512 512" width="512" xmlns="http://www.w3.org/2000/svg" xmlns:xlink="http://www.w3.org/1999/xlink"><linearGradient id="SVGID_1_" gradientUnits="userSpaceOnUse" x1="166.882" x2="224.477" y1="314.199" y2="314.199"><stop offset="0" stop-color="#cc8241"/><stop offset="1" stop-color="#dea861"/></linearGradient><linearGradient id="SVGID_2_" gradientUnits="userSpaceOnUse" x1="99.238" x2="314.928" y1="57.996" y2="182.524"><stop offset="0" stop-color="#dea861"/><stop offset="1" stop-color="#ebcba0"/></linearGradient><linearGradient id="lg1"><stop offset="0" stop-color="#236568"/><stop offset="1" stop-color="#2f878a"/></linearGradient><linearGradient id="SVGID_3_" gradientUnits="userSpaceOnUse" x1="437.587" x2="450.693" xlink:href="#lg1" y1="194.447" y2="171.746"/><linearGradient id="SVGID_4_" gradientUnits="userSpaceOnUse" x1="347.036" x2="357.574" xlink:href="#lg1" y1="351.285" y2="333.032"/><g><g><path d="m425.599 377.621v-261.224l-419.271 17.98v261.224c-.001 5.986 2.961 11.971 8.885 15.392l166.091 95.893c11.813 6.82 26.366 6.82 38.179 0l197.232-113.872c5.923-3.421 8.885-9.407 8.884-15.393z" fill="url(#SVGID_1_)"/><path d="m15.213 118.987 197.232-113.872c11.813-6.82 26.366-6.82 38.178 0l166.091 95.893c11.847 6.84 11.847 23.94 0 30.78l-197.232 113.871c-11.813 6.82-26.366 6.82-38.178 0l-166.091-95.892c-11.847-6.84-11.847-23.94 0-30.78z" fill="url(#SVGID_2_)"/><path d="m79.165 82.064 211.836 122.304 56.192-32.443-211.836-122.303z" fill="#dea861"/><g fill="#cc8241"><path d="m112.75 62.657 211.836 122.304-11.007 6.355-211.836-122.304z"/><path d="m291.001 204.368v46.406l56.192-32.443v-46.406z"/></g></g><g><path d="m500.413 198.225c-.926-.7-1.913-1.243-2.931-1.665l-40.409-22.954c-6.528-4.935-15.925-2.827-19.72 4.424l-75.348 145.09-.802-.606c-2.398-1.813-5.027-3.041-7.734-3.781l-.021-.039-35.585-20.799c-1.94-1.467-4.034-2.548-6.195-3.309l-.077-.044.009.018c-10.325-3.597-22.274.649-27.662 10.944-5.165 9.868-2.439 22.023 6.446 28.74l68.562 51.831 43.339 24.619 101.874-195.762c3.005-5.737 1.419-12.803-3.746-16.707z" fill="url(#SVGID_3_)"/><path d="m361.203 322.514c-2.398-1.813-5.027-3.041-7.733-3.781l-.021-.039-35.585-20.799c-1.94-1.467-4.034-2.548-6.195-3.309l-.077-.044.01.018c-10.325-3.597-22.274.649-27.662 10.944-5.165 9.868-2.439 22.023 6.446 28.74l68.561 51.831 43.339 24.619z" fill="url(#SVGID_4_)"/><g><path d="m402.287 410.693-68.562-51.831c-8.884-6.716-11.611-18.872-6.446-28.739 6.529-12.473 22.695-16.099 33.925-7.609l41.083 31.059 78.406-150.924c3.795-7.251 13.191-9.359 19.72-4.424 5.165 3.904 6.75 10.97 3.748 16.706z" fill="#06daae"/></g></g></g></svg>